<?xml version="1.0" encoding="utf-8"?>
<!-- Generator: Adobe Illustrator 16.0.0, SVG Export Plug-In . SVG Version: 6.00 Build 0)  -->
<!DOCTYPE svg PUBLIC "-//W3C//DTD SVG 1.1//EN" "http://www.w3.org/Graphics/SVG/1.1/DTD/svg11.dtd">
<svg version="1.1" xmlns="http://www.w3.org/2000/svg" xmlns:xlink="http://www.w3.org/1999/xlink" x="0px" y="0px"
	 width="302.41px" height="167.47px" viewBox="0 0 302.41 167.47" enable-background="new 0 0 302.41 167.47" xml:space="preserve">
<g id="Layer_1">
	<path fill="#D1D3D4" d="M206.672,104.311c0,2.098-1.41,3.8-3.149,3.8H92.86c-1.739,0-3.149-1.702-3.149-3.8V26.067
		c0-2.098,1.41-3.8,3.149-3.8h110.663c1.739,0,3.149,1.702,3.149,3.8V104.311z"/>
	<path fill="#55ABDF" d="M149.91,73.278h19.658c-0.854,3.687-2.248,7.166-4.096,10.348c-3.984,6.86-10.076,12.345-17.387,15.568
		c-4.637,2.044-9.762,3.178-15.151,3.178c-20.768,0-37.602-16.834-37.602-37.601c0-20.768,16.834-37.601,37.602-37.601
		c5.39,0,10.515,1.134,15.151,3.177c7.311,3.223,13.402,8.708,17.387,15.567c1.848,3.183,3.242,6.663,4.096,10.349H149.91
		c-0.521-1.036-1.132-2.019-1.826-2.936c-3.463-4.582-8.961-7.543-15.149-7.543c-0.758,0-1.502,0.044-2.236,0.13
		c-9.433,1.107-16.752,9.127-16.752,18.856c0,9.73,7.319,17.749,16.752,18.855c0.733,0.086,1.478,0.131,2.236,0.131
		c6.188,0,11.687-2.961,15.149-7.543C148.778,75.295,149.389,74.314,149.91,73.278z"/>
	<path fill="#D7AC55" d="M163.236,27.169c-5.391,0-10.516,1.134-15.15,3.177c-7.313,3.223-13.404,8.707-17.387,15.567
		c-1.85,3.183-3.244,6.663-4.097,10.349h19.657c0.52-1.036,1.132-2.019,1.825-2.936c3.467-4.582,8.965-7.543,15.152-7.543
		c0.756,0,1.502,0.044,2.236,0.13c9.433,1.107,16.75,9.127,16.75,18.856c0,9.73-7.317,17.749-16.75,18.855
		c-3.984,6.86-10.076,12.345-17.387,15.568c4.635,2.044,9.76,3.178,15.15,3.178c20.768,0,37.602-16.834,37.602-37.601
		C200.837,44.003,184.003,27.169,163.236,27.169z M126.602,73.278c0.853,3.687,2.247,7.166,4.097,10.348
		c0.733,0.086,1.478,0.131,2.236,0.131c6.188,0,11.687-2.961,15.149-7.543c-0.693-0.917-1.306-1.899-1.825-2.935H126.602z"/>
	<rect x="103.559" y="113.444" fill="none" width="183.076" height="35.084"/>
	<text transform="matrix(1 0 0 1 108.2607 140.6865)" fill="#6D6E71" font-family="'Consolas'" font-size="39.4844">{      }</text>
	<rect x="130.13" y="115.231" fill="none" width="136.633" height="33.296"/>
	<text transform="matrix(1 0 0 1 130.1289 142.4741)" fill="#55A9DA" font-family="'Consolas'" font-size="39.4844">Collab</text>
	<rect x="22.467" y="114.532" fill="none" width="116.603" height="32.907"/>
	<text transform="matrix(1 0 0 1 22.4663 141.7759)" fill="#D7AC55" font-family="'Consolas'" font-size="39.4844">Code</text>
</g>
<g id="Layer_2" display="none">
	<radialGradient id="SVGID_1_" cx="426.106" cy="266.9878" r="125.8454" gradientUnits="userSpaceOnUse">
		<stop  offset="0" style="stop-color:#00AEEF"/>
		<stop  offset="0.1929" style="stop-color:#00ABED"/>
		<stop  offset="0.3478" style="stop-color:#00A6E9"/>
		<stop  offset="0.4896" style="stop-color:#009EE2"/>
		<stop  offset="0.6236" style="stop-color:#0094D8"/>
		<stop  offset="0.752" style="stop-color:#0085CC"/>
		<stop  offset="0.8759" style="stop-color:#0074BE"/>
		<stop  offset="0.9948" style="stop-color:#0060AF"/>
		<stop  offset="1" style="stop-color:#005FAE"/>
	</radialGradient>
	<path display="inline" fill="url(#SVGID_1_)" stroke="#000000" stroke-width="0.7506" stroke-miterlimit="10" d="M484.919,295.645
		h66.215c-2.871,12.418-7.57,24.135-13.795,34.855c-13.42,23.105-33.938,41.58-58.566,52.441
		c-15.615,6.883-32.883,10.703-51.039,10.703c-69.951,0-126.656-56.705-126.656-126.656c0-69.953,56.705-126.658,126.656-126.658
		c18.156,0,35.424,3.821,51.039,10.703c24.629,10.857,45.146,29.332,58.563,52.439c6.229,10.721,10.928,22.441,13.799,34.859
		h-66.215c-1.752-3.49-3.813-6.801-6.15-9.889c-11.672-15.436-30.191-25.41-51.035-25.41c-2.547,0-5.059,0.15-7.527,0.439
		c-31.775,3.727-56.428,30.742-56.428,63.516s24.652,59.785,56.424,63.512c2.469,0.289,4.984,0.439,7.531,0.439
		c20.848,0,39.363-9.975,51.035-25.41C481.107,302.442,483.167,299.135,484.919,295.645z"/>
	
		<radialGradient id="SVGID_2_" cx="-32.2163" cy="266.9878" r="125.8454" gradientTransform="matrix(-1 0 0 1 499.2197 0)" gradientUnits="userSpaceOnUse">
		<stop  offset="0" style="stop-color:#00AEEF"/>
		<stop  offset="0.1929" style="stop-color:#00ABED"/>
		<stop  offset="0.3478" style="stop-color:#00A6E9"/>
		<stop  offset="0.4896" style="stop-color:#009EE2"/>
		<stop  offset="0.6236" style="stop-color:#0094D8"/>
		<stop  offset="0.752" style="stop-color:#0085CC"/>
		<stop  offset="0.8759" style="stop-color:#0074BE"/>
		<stop  offset="0.9948" style="stop-color:#0060AF"/>
		<stop  offset="1" style="stop-color:#005FAE"/>
	</radialGradient>
	<path display="inline" fill="url(#SVGID_2_)" stroke="#000000" stroke-width="0.7506" stroke-miterlimit="10" d="M529.806,140.331
		c-18.16,0-35.422,3.821-51.033,10.703c-24.631,10.857-45.15,29.328-58.566,52.439c-6.23,10.721-10.928,22.441-13.799,34.859h66.211
		c1.752-3.49,3.813-6.801,6.15-9.889c11.674-15.436,30.195-25.41,51.037-25.41c2.549,0,5.059,0.15,7.529,0.439
		c31.773,3.727,56.424,30.742,56.424,63.516s-24.65,59.785-56.42,63.512c-13.42,23.105-33.938,41.58-58.566,52.441
		c15.611,6.883,32.873,10.703,51.033,10.703c69.953,0,126.658-56.705,126.658-126.656
		C656.464,197.036,599.759,140.331,529.806,140.331z M406.408,295.645c2.871,12.418,7.568,24.135,13.795,34.855
		c2.469,0.289,4.984,0.439,7.531,0.439c20.848,0,39.363-9.975,51.035-25.41c-2.338-3.088-4.398-6.395-6.15-9.885H406.408z"/>
</g>
</svg>
