<?xml version="1.0" encoding="utf-8"?>
<!-- Generator: Adobe Illustrator 16.0.0, SVG Export Plug-In . SVG Version: 6.00 Build 0)  -->
<!DOCTYPE svg PUBLIC "-//W3C//DTD SVG 1.1//EN" "http://www.w3.org/Graphics/SVG/1.1/DTD/svg11.dtd">
<svg version="1.1" xmlns="http://www.w3.org/2000/svg" xmlns:xlink="http://www.w3.org/1999/xlink" x="0px" y="0px"
	 width="302.41px" height="167.47px" viewBox="0 0 302.41 167.47" enable-background="new 0 0 302.41 167.47" xml:space="preserve">
<g id="Layer_1">
	<path fill="#D1D3D4" d="M209.416,105.306c0,2.209-1.484,4-3.314,4H89.613c-1.83,0-3.314-1.791-3.314-4V22.944
		c0-2.209,1.484-4,3.314-4h116.488c1.83,0,3.314,1.791,3.314,4V105.306z"/>
	<path fill="#55ABDF" d="M149.666,72.64h20.692c-0.897,3.881-2.366,7.543-4.312,10.893c-4.193,7.221-10.605,12.994-18.302,16.388
		c-4.88,2.151-10.274,3.345-15.948,3.345c-21.861,0-39.581-17.72-39.581-39.58s17.72-39.58,39.581-39.58
		c5.674,0,11.068,1.194,15.948,3.345c7.696,3.393,14.108,9.166,18.302,16.387c1.945,3.351,3.414,7.014,4.312,10.894h-20.692
		c-0.548-1.09-1.191-2.125-1.922-3.09c-3.646-4.823-9.434-7.94-15.947-7.94c-0.798,0-1.581,0.047-2.354,0.137
		c-9.93,1.165-17.634,9.607-17.634,19.849c0,10.242,7.704,18.684,17.634,19.848c0.771,0.091,1.556,0.138,2.354,0.138
		c6.514,0,12.301-3.117,15.947-7.94C148.474,74.764,149.118,73.73,149.666,72.64z"/>
	<path fill="#D7AC55" d="M163.693,24.104c-5.675,0-11.069,1.194-15.948,3.345c-7.696,3.393-14.109,9.165-18.302,16.387
		c-1.947,3.351-3.415,7.014-4.313,10.894h20.691c0.547-1.09,1.191-2.125,1.922-3.09c3.648-4.823,9.436-7.94,15.949-7.94
		c0.796,0,1.581,0.047,2.354,0.137c9.93,1.165,17.632,9.607,17.632,19.849c0,10.242-7.702,18.684-17.632,19.848
		c-4.193,7.221-10.605,12.994-18.302,16.388c4.879,2.151,10.273,3.345,15.948,3.345c21.86,0,39.58-17.72,39.58-39.58
		S185.553,24.104,163.693,24.104z M125.13,72.64c0.897,3.881,2.365,7.543,4.313,10.893c0.771,0.091,1.556,0.138,2.354,0.138
		c6.514,0,12.301-3.117,15.947-7.94c-0.73-0.966-1.375-1.999-1.922-3.09H125.13z"/>
	<rect x="100.875" y="114.92" fill="none" width="192.711" height="36.931"/>
	<text transform="matrix(1 0 0 1 105.8237 143.5967)" fill="#6D6E71" font-family="'Consolas'" font-size="41.5625">{      }</text>
	<rect x="128.844" y="116.802" fill="none" width="143.825" height="35.049"/>
	<text transform="matrix(1 0 0 1 128.8433 145.4785)" fill="#55A9DA" font-family="'Consolas'" font-size="41.5625">Collab</text>
	<rect x="15.515" y="116.065" fill="none" width="122.74" height="34.639"/>
	<text transform="matrix(1 0 0 1 15.5142 144.7432)" fill="#D7AC55" font-family="'Consolas'" font-size="41.5625">Code</text>
</g>
<g id="Layer_2" display="none">
	<radialGradient id="SVGID_1_" cx="426.106" cy="266.9878" r="125.8454" gradientUnits="userSpaceOnUse">
		<stop  offset="0" style="stop-color:#00AEEF"/>
		<stop  offset="0.1929" style="stop-color:#00ABED"/>
		<stop  offset="0.3478" style="stop-color:#00A6E9"/>
		<stop  offset="0.4896" style="stop-color:#009EE2"/>
		<stop  offset="0.6236" style="stop-color:#0094D8"/>
		<stop  offset="0.752" style="stop-color:#0085CC"/>
		<stop  offset="0.8759" style="stop-color:#0074BE"/>
		<stop  offset="0.9948" style="stop-color:#0060AF"/>
		<stop  offset="1" style="stop-color:#005FAE"/>
	</radialGradient>
	<path display="inline" fill="url(#SVGID_1_)" stroke="#000000" stroke-width="0.7506" stroke-miterlimit="10" d="M484.919,295.645
		h66.215c-2.871,12.418-7.57,24.135-13.795,34.855c-13.42,23.105-33.938,41.58-58.566,52.441
		c-15.615,6.883-32.883,10.703-51.039,10.703c-69.951,0-126.656-56.705-126.656-126.656c0-69.953,56.705-126.658,126.656-126.658
		c18.156,0,35.424,3.821,51.039,10.703c24.629,10.857,45.146,29.332,58.563,52.439c6.229,10.721,10.928,22.441,13.799,34.859
		h-66.215c-1.752-3.49-3.813-6.801-6.15-9.889c-11.672-15.436-30.191-25.41-51.035-25.41c-2.547,0-5.059,0.15-7.527,0.439
		c-31.775,3.727-56.428,30.742-56.428,63.516s24.652,59.785,56.424,63.512c2.469,0.289,4.984,0.439,7.531,0.439
		c20.848,0,39.363-9.975,51.035-25.41C481.107,302.442,483.167,299.135,484.919,295.645z"/>
	
		<radialGradient id="SVGID_2_" cx="-32.2163" cy="266.9878" r="125.8454" gradientTransform="matrix(-1 0 0 1 499.2197 0)" gradientUnits="userSpaceOnUse">
		<stop  offset="0" style="stop-color:#00AEEF"/>
		<stop  offset="0.1929" style="stop-color:#00ABED"/>
		<stop  offset="0.3478" style="stop-color:#00A6E9"/>
		<stop  offset="0.4896" style="stop-color:#009EE2"/>
		<stop  offset="0.6236" style="stop-color:#0094D8"/>
		<stop  offset="0.752" style="stop-color:#0085CC"/>
		<stop  offset="0.8759" style="stop-color:#0074BE"/>
		<stop  offset="0.9948" style="stop-color:#0060AF"/>
		<stop  offset="1" style="stop-color:#005FAE"/>
	</radialGradient>
	<path display="inline" fill="url(#SVGID_2_)" stroke="#000000" stroke-width="0.7506" stroke-miterlimit="10" d="M529.806,140.331
		c-18.16,0-35.422,3.821-51.033,10.703c-24.631,10.857-45.15,29.328-58.566,52.439c-6.23,10.721-10.928,22.441-13.799,34.859h66.211
		c1.752-3.49,3.813-6.801,6.15-9.889c11.674-15.436,30.195-25.41,51.037-25.41c2.549,0,5.059,0.15,7.529,0.439
		c31.773,3.727,56.424,30.742,56.424,63.516s-24.65,59.785-56.42,63.512c-13.42,23.105-33.938,41.58-58.566,52.441
		c15.611,6.883,32.873,10.703,51.033,10.703c69.953,0,126.658-56.705,126.658-126.656
		C656.464,197.036,599.759,140.331,529.806,140.331z M406.408,295.645c2.871,12.418,7.568,24.135,13.795,34.855
		c2.469,0.289,4.984,0.439,7.531,0.439c20.848,0,39.363-9.975,51.035-25.41c-2.338-3.088-4.398-6.395-6.15-9.885H406.408z"/>
</g>
</svg>
